<?xml version="1.0" encoding="UTF-8"?>
<!--Generator: Apple Native CoreSVG 175-->
<!DOCTYPE svg
PUBLIC "-//W3C//DTD SVG 1.1//EN"
       "http://www.w3.org/Graphics/SVG/1.1/DTD/svg11.dtd">
<svg version="1.1" xmlns="http://www.w3.org/2000/svg" xmlns:xlink="http://www.w3.org/1999/xlink" width="3300" height="2200">
 <!--glyph: "uni1002B5.medium", point size: 100.0, font version: "17.3d3e1", template writer version: "65.1"-->
 <g id="Notes">
  <rect height="2200" id="artboard" style="fill:white;opacity:1" width="3300" x="0" y="0"/>
  <line style="fill:none;stroke:black;opacity:1;stroke-width:0.5;" x1="263" x2="3036" y1="292" y2="292"/>
  <text style="stroke:none;fill:black;font-family:sans-serif;font-size:13;font-weight:bold;" transform="matrix(1 0 0 1 263 322)">Weight/Scale Variations</text>
  <text style="stroke:none;fill:black;font-family:sans-serif;font-size:13;text-anchor:middle;" transform="matrix(1 0 0 1 559.711 322)">Ultralight</text>
  <text style="stroke:none;fill:black;font-family:sans-serif;font-size:13;text-anchor:middle;" transform="matrix(1 0 0 1 856.422 322)">Thin</text>
  <text style="stroke:none;fill:black;font-family:sans-serif;font-size:13;text-anchor:middle;" transform="matrix(1 0 0 1 1153.13 322)">Light</text>
  <text style="stroke:none;fill:black;font-family:sans-serif;font-size:13;text-anchor:middle;" transform="matrix(1 0 0 1 1449.84 322)">Regular</text>
  <text style="stroke:none;fill:black;font-family:sans-serif;font-size:13;text-anchor:middle;" transform="matrix(1 0 0 1 1746.56 322)">Medium</text>
  <text style="stroke:none;fill:black;font-family:sans-serif;font-size:13;text-anchor:middle;" transform="matrix(1 0 0 1 2043.27 322)">Semibold</text>
  <text style="stroke:none;fill:black;font-family:sans-serif;font-size:13;text-anchor:middle;" transform="matrix(1 0 0 1 2339.98 322)">Bold</text>
  <text style="stroke:none;fill:black;font-family:sans-serif;font-size:13;text-anchor:middle;" transform="matrix(1 0 0 1 2636.69 322)">Heavy</text>
  <text style="stroke:none;fill:black;font-family:sans-serif;font-size:13;text-anchor:middle;" transform="matrix(1 0 0 1 2933.4 322)">Black</text>
  <line style="fill:none;stroke:black;opacity:1;stroke-width:0.5;" x1="263" x2="3036" y1="1903" y2="1903"/>
  <g transform="matrix(1 0 0 1 263 1933)">
   <path d="M9.24805 0.830078Q10.8691 0.830078 12.2949 0.214844Q13.7207-0.400391 14.8096-1.49414Q15.8984-2.58789 16.5186-4.01367Q17.1387-5.43945 17.1387-7.05078Q17.1387-8.66211 16.5186-10.0879Q15.8984-11.5137 14.8047-12.6074Q13.7109-13.7012 12.2852-14.3164Q10.8594-14.9316 9.23828-14.9316Q7.62695-14.9316 6.20117-14.3164Q4.77539-13.7012 3.69141-12.6074Q2.60742-11.5137 1.9873-10.0879Q1.36719-8.66211 1.36719-7.05078Q1.36719-5.43945 1.9873-4.01367Q2.60742-2.58789 3.69629-1.49414Q4.78516-0.400391 6.21094 0.214844Q7.63672 0.830078 9.24805 0.830078ZM9.24805-0.654297Q7.91992-0.654297 6.7627-1.14746Q5.60547-1.64062 4.73145-2.51953Q3.85742-3.39844 3.36426-4.56055Q2.87109-5.72266 2.87109-7.05078Q2.87109-8.37891 3.35938-9.54102Q3.84766-10.7031 4.72168-11.582Q5.5957-12.4609 6.75293-12.9541Q7.91016-13.4473 9.23828-13.4473Q10.5762-13.4473 11.7334-12.9541Q12.8906-12.4609 13.7695-11.582Q14.6484-10.7031 15.1465-9.54102Q15.6445-8.37891 15.6445-7.05078Q15.6445-5.72266 15.1514-4.56055Q14.6582-3.39844 13.7842-2.51953Q12.9102-1.64062 11.748-1.14746Q10.5859-0.654297 9.24805-0.654297ZM5.6543-7.05078Q5.6543-6.72852 5.85938-6.52832Q6.06445-6.32812 6.40625-6.32812L8.51562-6.32812L8.51562-4.20898Q8.51562-3.88672 8.71094-3.67676Q8.90625-3.4668 9.23828-3.4668Q9.56055-3.4668 9.77051-3.67676Q9.98047-3.88672 9.98047-4.20898L9.98047-6.32812L12.0898-6.32812Q12.4219-6.32812 12.627-6.52832Q12.832-6.72852 12.832-7.05078Q12.832-7.38281 12.627-7.58789Q12.4219-7.79297 12.0898-7.79297L9.98047-7.79297L9.98047-9.90234Q9.98047-10.2344 9.77051-10.4443Q9.56055-10.6543 9.23828-10.6543Q8.90625-10.6543 8.71094-10.4443Q8.51562-10.2344 8.51562-9.90234L8.51562-7.79297L6.40625-7.79297Q6.06445-7.79297 5.85938-7.58789Q5.6543-7.38281 5.6543-7.05078Z"/>
  </g>
  <g transform="matrix(1 0 0 1 281.867 1933)">
   <path d="M11.709 2.91016Q13.75 2.91016 15.5518 2.12891Q17.3535 1.34766 18.7305-0.0292969Q20.1074-1.40625 20.8887-3.20801Q21.6699-5.00977 21.6699-7.05078Q21.6699-9.0918 20.8887-10.8936Q20.1074-12.6953 18.7305-14.0723Q17.3535-15.4492 15.5469-16.2305Q13.7402-17.0117 11.6992-17.0117Q9.6582-17.0117 7.85645-16.2305Q6.05469-15.4492 4.68262-14.0723Q3.31055-12.6953 2.5293-10.8936Q1.74805-9.0918 1.74805-7.05078Q1.74805-5.00977 2.5293-3.20801Q3.31055-1.40625 4.6875-0.0292969Q6.06445 1.34766 7.86621 2.12891Q9.66797 2.91016 11.709 2.91016ZM11.709 1.25Q9.98047 1.25 8.47656 0.605469Q6.97266-0.0390625 5.83496-1.17676Q4.69727-2.31445 4.05762-3.81836Q3.41797-5.32227 3.41797-7.05078Q3.41797-8.7793 4.05762-10.2832Q4.69727-11.7871 5.83008-12.9297Q6.96289-14.0723 8.4668-14.7119Q9.9707-15.3516 11.6992-15.3516Q13.4277-15.3516 14.9316-14.7119Q16.4355-14.0723 17.5781-12.9297Q18.7207-11.7871 19.3652-10.2832Q20.0098-8.7793 20.0098-7.05078Q20.0098-5.32227 19.3701-3.81836Q18.7305-2.31445 17.5928-1.17676Q16.4551-0.0390625 14.9463 0.605469Q13.4375 1.25 11.709 1.25ZM7.17773-7.05078Q7.17773-6.69922 7.41211-6.47461Q7.64648-6.25 8.01758-6.25L10.8887-6.25L10.8887-3.36914Q10.8887-2.99805 11.1133-2.76855Q11.3379-2.53906 11.6895-2.53906Q12.0605-2.53906 12.29-2.76855Q12.5195-2.99805 12.5195-3.36914L12.5195-6.25L15.4004-6.25Q15.7715-6.25 16.001-6.47461Q16.2305-6.69922 16.2305-7.05078Q16.2305-7.42188 16.001-7.65137Q15.7715-7.88086 15.4004-7.88086L12.5195-7.88086L12.5195-10.752Q12.5195-11.1328 12.29-11.3623Q12.0605-11.5918 11.6895-11.5918Q11.3379-11.5918 11.1133-11.3574Q10.8887-11.123 10.8887-10.752L10.8887-7.88086L8.01758-7.88086Q7.63672-7.88086 7.40723-7.65137Q7.17773-7.42188 7.17773-7.05078Z"/>
  </g>
  <g transform="matrix(1 0 0 1 305.646 1933)">
   <path d="M14.9707 5.66406Q17.0605 5.66406 18.96 5.01465Q20.8594 4.36523 22.4512 3.19336Q24.043 2.02148 25.2197 0.429688Q26.3965-1.16211 27.0459-3.06641Q27.6953-4.9707 27.6953-7.05078Q27.6953-9.14062 27.0459-11.04Q26.3965-12.9395 25.2197-14.5312Q24.043-16.123 22.4512-17.2998Q20.8594-18.4766 18.9551-19.126Q17.0508-19.7754 14.9609-19.7754Q12.8711-19.7754 10.9717-19.126Q9.07227-18.4766 7.48535-17.2998Q5.89844-16.123 4.72168-14.5312Q3.54492-12.9395 2.90039-11.04Q2.25586-9.14062 2.25586-7.05078Q2.25586-4.9707 2.90527-3.06641Q3.55469-1.16211 4.72656 0.429688Q5.89844 2.02148 7.49023 3.19336Q9.08203 4.36523 10.9814 5.01465Q12.8809 5.66406 14.9707 5.66406ZM14.9707 3.84766Q13.1641 3.84766 11.5283 3.2959Q9.89258 2.74414 8.53516 1.74805Q7.17773 0.751953 6.17676-0.610352Q5.17578-1.97266 4.62891-3.6084Q4.08203-5.24414 4.08203-7.05078Q4.08203-8.86719 4.62891-10.5029Q5.17578-12.1387 6.17188-13.501Q7.16797-14.8633 8.52539-15.8594Q9.88281-16.8555 11.5186-17.4023Q13.1543-17.9492 14.9609-17.9492Q16.7773-17.9492 18.4131-17.4023Q20.0488-16.8555 21.4111-15.8594Q22.7734-14.8633 23.7695-13.501Q24.7656-12.1387 25.3174-10.5029Q25.8691-8.86719 25.8691-7.05078Q25.8789-5.24414 25.332-3.6084Q24.7852-1.97266 23.7842-0.610352Q22.7832 0.751953 21.4209 1.74805Q20.0586 2.74414 18.4229 3.2959Q16.7871 3.84766 14.9707 3.84766ZM9.19922-7.05078Q9.19922-6.66992 9.45801-6.4209Q9.7168-6.17188 10.1172-6.17188L14.0625-6.17188L14.0625-2.2168Q14.0625-1.81641 14.3115-1.55762Q14.5605-1.29883 14.9512-1.29883Q15.3516-1.29883 15.6104-1.55273Q15.8691-1.80664 15.8691-2.2168L15.8691-6.17188L19.8242-6.17188Q20.2246-6.17188 20.4785-6.4209Q20.7324-6.66992 20.7324-7.05078Q20.7324-7.46094 20.4785-7.71484Q20.2246-7.96875 19.8242-7.96875L15.8691-7.96875L15.8691-11.9141Q15.8691-12.3242 15.6104-12.583Q15.3516-12.8418 14.9512-12.8418Q14.5605-12.8418 14.3115-12.583Q14.0625-12.3242 14.0625-11.9141L14.0625-7.96875L10.1172-7.96875Q9.70703-7.96875 9.45312-7.71484Q9.19922-7.46094 9.19922-7.05078Z"/>
  </g>
  <text style="stroke:none;fill:black;font-family:sans-serif;font-size:13;font-weight:bold;" transform="matrix(1 0 0 1 263 1953)">Design Variations</text>
  <text style="stroke:none;fill:black;font-family:sans-serif;font-size:13;" transform="matrix(1 0 0 1 263 1971)">Symbols are supported in up to nine weights and three scales.</text>
  <text style="stroke:none;fill:black;font-family:sans-serif;font-size:13;" transform="matrix(1 0 0 1 263 1989)">For optimal layout with text and other symbols, vertically align</text>
  <text style="stroke:none;fill:black;font-family:sans-serif;font-size:13;" transform="matrix(1 0 0 1 263 2007)">symbols with the adjacent text.</text>
  <line style="fill:none;stroke:#00AEEF;stroke-width:0.5;opacity:1.0;" x1="776" x2="776" y1="1919" y2="1933"/>
  <g transform="matrix(1 0 0 1 776 1933)">
   <path d="M3.31055 0.15625Q3.70117 0.15625 3.91602-0.00976562Q4.13086-0.175781 4.26758-0.585938L5.52734-4.0332L11.2891-4.0332L12.5488-0.585938Q12.6855-0.175781 12.9004-0.00976562Q13.1152 0.15625 13.4961 0.15625Q13.8867 0.15625 14.1162-0.0585938Q14.3457-0.273438 14.3457-0.644531Q14.3457-0.869141 14.2383-1.17188L9.6582-13.3691Q9.48242-13.8184 9.17969-14.043Q8.87695-14.2676 8.4082-14.2676Q7.5-14.2676 7.17773-13.3789L2.59766-1.16211Q2.49023-0.859375 2.49023-0.634766Q2.49023-0.263672 2.70996-0.0537109Q2.92969 0.15625 3.31055 0.15625ZM6.00586-5.51758L8.37891-12.0898L8.42773-12.0898L10.8008-5.51758Z"/>
  </g>
  <line style="fill:none;stroke:#00AEEF;stroke-width:0.5;opacity:1.0;" x1="793.197" x2="793.197" y1="1919" y2="1933"/>
  <text style="stroke:none;fill:black;font-family:sans-serif;font-size:13;font-weight:bold;" transform="matrix(1 0 0 1 776 1953)">Margins</text>
  <text style="stroke:none;fill:black;font-family:sans-serif;font-size:13;" transform="matrix(1 0 0 1 776 1971)">Leading and trailing margins on the left and right side of each symbol</text>
  <text style="stroke:none;fill:black;font-family:sans-serif;font-size:13;" transform="matrix(1 0 0 1 776 1989)">can be adjusted by modifying the x-location of the margin guidelines.</text>
  <text style="stroke:none;fill:black;font-family:sans-serif;font-size:13;" transform="matrix(1 0 0 1 776 2007)">Modifications are automatically applied proportionally to all</text>
  <text style="stroke:none;fill:black;font-family:sans-serif;font-size:13;" transform="matrix(1 0 0 1 776 2025)">scales and weights.</text>
  <g transform="matrix(1 0 0 1 1289 1933)">
   <path d="M2.8418 1.86523L4.54102 3.57422Q5.18555 4.22852 5.90332 4.17969Q6.62109 4.13086 7.31445 3.35938L18.0078-8.42773L17.041-9.4043L6.42578 2.27539Q6.16211 2.57812 5.89355 2.61719Q5.625 2.65625 5.27344 2.30469L4.10156 1.14258Q3.75 0.791016 3.79395 0.522461Q3.83789 0.253906 4.14062-0.0195312L15.6152-10.8203L14.6387-11.7871L3.04688-0.898438Q2.30469-0.214844 2.25098 0.498047Q2.19727 1.21094 2.8418 1.86523ZM9.25781-16.3281Q8.94531-16.0254 8.90625-15.6348Q8.86719-15.2441 9.04297-14.9512Q9.21875-14.6777 9.55566-14.541Q9.89258-14.4043 10.3809-14.5215Q11.4746-14.7754 12.5977-14.7314Q13.7207-14.6875 14.7949-13.9844L14.209-12.5293Q13.9551-11.9043 14.0674-11.4404Q14.1797-10.9766 14.5801-10.5664L16.875-8.25195Q17.2363-7.88086 17.5781-7.82227Q17.9199-7.76367 18.3398-7.8418L19.4043-8.03711L20.0684-7.36328L20.0293-6.80664Q20-6.43555 20.1221-6.12305Q20.2441-5.81055 20.6055-5.44922L21.3672-4.70703Q21.7285-4.3457 22.1533-4.33105Q22.5781-4.31641 22.9297-4.66797L25.8398-7.58789Q26.1914-7.93945 26.1816-8.35449Q26.1719-8.76953 25.8105-9.13086L25.0391-9.89258Q24.6875-10.2539 24.3799-10.3857Q24.0723-10.5176 23.7109-10.4883L23.1348-10.4395L22.4902-11.0742L22.7344-12.1973Q22.832-12.6172 22.6953-12.9834Q22.5586-13.3496 22.1191-13.7891L19.9219-15.9766Q18.6719-17.2168 17.2607-17.8369Q15.8496-18.457 14.4189-18.4814Q12.9883-18.5059 11.665-17.959Q10.3418-17.4121 9.25781-16.3281ZM10.752-15.957Q11.6602-16.6211 12.7002-16.9043Q13.7402-17.1875 14.8047-17.085Q15.8691-16.9824 16.8701-16.5137Q17.8711-16.0449 18.7012-15.2051L21.1328-12.793Q21.3086-12.6172 21.3525-12.4512Q21.3965-12.2852 21.3379-12.0312L21.0156-10.5469L22.5195-9.0625L23.5059-9.12109Q23.6914-9.13086 23.7891-9.09668Q23.8867-9.0625 24.0332-8.91602L24.6094-8.33984L22.168-5.89844L21.5918-6.47461Q21.4453-6.62109 21.4062-6.71875Q21.3672-6.81641 21.377-7.01172L21.4453-7.98828L19.9512-9.47266L18.4277-9.21875Q18.1836-9.16992 18.042-9.2041Q17.9004-9.23828 17.7148-9.41406L15.7129-11.416Q15.5176-11.5918 15.4932-11.7529Q15.4688-11.9141 15.5859-12.1875L16.4648-14.2773Q15.293-15.3711 13.8281-15.791Q12.3633-16.2109 10.8398-15.7617Q10.7227-15.7324 10.6885-15.8057Q10.6543-15.8789 10.752-15.957Z"/>
  </g>
  <text style="stroke:none;fill:black;font-family:sans-serif;font-size:13;font-weight:bold;" transform="matrix(1 0 0 1 1289 1953)">Exporting</text>
  <text style="stroke:none;fill:black;font-family:sans-serif;font-size:13;" transform="matrix(1 0 0 1 1289 1971)">Symbols should be outlined when exporting to ensure the</text>
  <text style="stroke:none;fill:black;font-family:sans-serif;font-size:13;" transform="matrix(1 0 0 1 1289 1989)">design is preserved when submitting to Xcode.</text>
  <text id="template-version" style="stroke:none;fill:black;font-family:sans-serif;font-size:13;text-anchor:end;" transform="matrix(1 0 0 1 3036 1933)">Template v.3.0</text>
  <text style="stroke:none;fill:black;font-family:sans-serif;font-size:13;text-anchor:end;" transform="matrix(1 0 0 1 3036 1951)">Requires Xcode 13 or greater</text>
  <text id="descriptive-name" style="stroke:none;fill:black;font-family:sans-serif;font-size:13;text-anchor:end;" transform="matrix(1 0 0 1 3036 1969)">Generated from heart.fill</text>
  <text style="stroke:none;fill:black;font-family:sans-serif;font-size:13;text-anchor:end;" transform="matrix(1 0 0 1 3036 1987)">Typeset at 100 points</text>
  <text style="stroke:none;fill:black;font-family:sans-serif;font-size:13;" transform="matrix(1 0 0 1 263 726)">Small</text>
  <text style="stroke:none;fill:black;font-family:sans-serif;font-size:13;" transform="matrix(1 0 0 1 263 1156)">Medium</text>
  <text style="stroke:none;fill:black;font-family:sans-serif;font-size:13;" transform="matrix(1 0 0 1 263 1586)">Large</text>
 </g>
 <g id="Guides">
  <g id="H-reference" style="fill:#27AAE1;stroke:none;" transform="matrix(1 0 0 1 339 696)">
   <path d="M0.993347 0L3.6377 0L29.3282-67.1326L30.0301-67.1326L30.0301-70.459L28.1227-70.459ZM11.6882-24.4797L46.9818-24.4797L46.2311-26.7288L12.4382-26.7288ZM55.1193 0L57.7637 0L30.6381-70.459L29.4327-70.459L29.4327-67.1326Z"/>
  </g>
  <line id="Baseline-S" style="fill:none;stroke:#27AAE1;opacity:1;stroke-width:0.5;" x1="263" x2="3036" y1="696" y2="696"/>
  <line id="Capline-S" style="fill:none;stroke:#27AAE1;opacity:1;stroke-width:0.5;" x1="263" x2="3036" y1="625.541" y2="625.541"/>
  <g id="H-reference" style="fill:#27AAE1;stroke:none;" transform="matrix(1 0 0 1 339 1126)">
   <path d="M0.993347 0L3.6377 0L29.3282-67.1326L30.0301-67.1326L30.0301-70.459L28.1227-70.459ZM11.6882-24.4797L46.9818-24.4797L46.2311-26.7288L12.4382-26.7288ZM55.1193 0L57.7637 0L30.6381-70.459L29.4327-70.459L29.4327-67.1326Z"/>
  </g>
  <line id="Baseline-M" style="fill:none;stroke:#27AAE1;opacity:1;stroke-width:0.5;" x1="263" x2="3036" y1="1126" y2="1126"/>
  <line id="Capline-M" style="fill:none;stroke:#27AAE1;opacity:1;stroke-width:0.5;" x1="263" x2="3036" y1="1055.54" y2="1055.54"/>
  <g id="H-reference" style="fill:#27AAE1;stroke:none;" transform="matrix(1 0 0 1 339 1556)">
   <path d="M0.993347 0L3.6377 0L29.3282-67.1326L30.0301-67.1326L30.0301-70.459L28.1227-70.459ZM11.6882-24.4797L46.9818-24.4797L46.2311-26.7288L12.4382-26.7288ZM55.1193 0L57.7637 0L30.6381-70.459L29.4327-70.459L29.4327-67.1326Z"/>
  </g>
  <line id="Baseline-L" style="fill:none;stroke:#27AAE1;opacity:1;stroke-width:0.5;" x1="263" x2="3036" y1="1556" y2="1556"/>
  <line id="Capline-L" style="fill:none;stroke:#27AAE1;opacity:1;stroke-width:0.5;" x1="263" x2="3036" y1="1485.54" y2="1485.54"/>
  <line id="left-margin-Regular-M" style="fill:none;stroke:#00AEEF;stroke-width:0.5;opacity:1.0;" x1="1389.34" x2="1389.34" y1="1030.79" y2="1150.12"/>
  <line id="right-margin-Regular-M" style="fill:none;stroke:#00AEEF;stroke-width:0.5;opacity:1.0;" x1="1510.35" x2="1510.35" y1="1030.79" y2="1150.12"/>
 </g>
 <g id="Symbols">
  <g id="Black-L" transform="matrix(1 0 0 1 2851.77 1556)">
   <path d="M81.627 29.4269Q83.5998 29.4269 86.3501 27.9238Q89.1005 26.4208 91.8898 24.5348Q109.025 13.1808 121.884 0.520026Q134.744-12.1407 141.872-25.5813Q149.001-39.0219 149.001-52.5973Q149.001-65.7279 143.544-75.4717Q138.086-85.2154 129.08-90.6213Q120.075-96.0272 109.507-96.0272Q99.5915-96.0272 92.6688-91.1406Q85.7461-86.254 81.627-78.5528Q77.5871-86.2332 70.6352-91.1302Q63.6833-96.0272 53.7469-96.0272Q43.1795-96.0272 34.184-90.6213Q25.1884-85.2154 19.7207-75.4717Q14.2531-65.7279 14.2531-52.5973Q14.2531-39.0219 21.3816-25.5813Q28.5102-12.1407 41.3698 0.520026Q54.2294 13.1808 71.3643 24.5348Q74.2328 26.4208 76.9721 27.9238Q79.7114 29.4269 81.627 29.4269Z"/>
  </g>
  <g id="Heavy-L" transform="matrix(1 0 0 1 2556.02 1556)">
   <path d="M80.6721 28.1545Q82.3979 28.1545 84.7961 26.8849Q87.1943 25.6154 89.5392 24.0272Q106.802 12.6859 119.694 0.092148Q132.587-12.5016 139.71-25.8525Q146.833-39.2033 146.833-52.7213Q146.833-65.3541 141.58-74.8082Q136.326-84.2624 127.58-89.5315Q118.834-94.8006 108.431-94.8006Q98.71-94.8006 91.763-89.964Q84.816-85.1273 80.6721-77.4024Q76.6031-85.0971 69.6338-89.9489Q62.6645-94.8006 52.9134-94.8006Q42.5098-94.8006 33.7793-89.5315Q25.0487-84.2624 19.7798-74.8082Q14.5109-65.3541 14.5109-52.7213Q14.5109-39.2033 21.6343-25.8525Q28.7576-12.5016 41.65 0.092148Q54.5424 12.6859 71.8051 24.0272Q74.2247 25.6154 76.6051 26.8849Q78.9854 28.1545 80.6721 28.1545Z"/>
  </g>
  <g id="Bold-L" transform="matrix(1 0 0 1 2260.59 1556)">
   <path d="M79.3844 26.5196Q80.8178 26.5196 82.7967 25.5234Q84.7756 24.5272 86.6047 23.2853Q103.954 11.9743 116.874-0.516325Q129.793-13.0069 136.92-26.224Q144.047-39.4412 144.047-52.8601Q144.047-64.893 139.036-73.9898Q134.024-83.0867 125.594-88.1867Q117.164-93.2867 106.967-93.2867Q97.507-93.2867 90.5181-88.5152Q83.5292-83.7438 79.3844-76.0031Q75.3069-83.7059 68.3034-88.4963Q61.2999-93.2867 51.8016-93.2867Q41.6055-93.2867 33.1941-88.1867Q24.7827-83.0867 19.7523-73.9898Q14.7218-64.893 14.7218-52.8601Q14.7218-39.4412 21.8487-26.224Q28.9756-13.0069 41.8953-0.516325Q54.8149 11.9743 72.1643 23.2853Q74.0605 24.5272 76.0138 25.5234Q77.9671 26.5196 79.3844 26.5196Z"/>
  </g>
  <g id="Semibold-L" transform="matrix(1 0 0 1 1964.77 1556)">
   <path d="M78.4967 25.3926Q79.7285 25.3926 81.4183 24.5848Q83.1082 23.7769 84.5817 22.7739Q101.991 11.4837 114.929-0.935802Q127.868-13.3553 134.997-26.4802Q142.127-39.6051 142.127-52.9558Q142.127-64.5751 137.282-73.4256Q132.438-82.2761 124.225-87.2595Q116.012-92.2429 105.958-92.2429Q96.6778-92.2429 89.66-87.5165Q82.6422-82.79 78.4967-75.0385Q74.4133-82.7468 67.3862-87.4949Q60.3591-92.2429 51.0352-92.2429Q40.982-92.2429 32.7907-87.2595Q24.5993-82.2761 19.7332-73.4256Q14.8672-64.5751 14.8672-52.9558Q14.8672-39.6051 21.9965-26.4802Q29.1258-13.3553 42.0643-0.935802Q55.0028 11.4837 72.412 22.7739Q73.9473 23.7769 75.6062 24.5848Q77.2651 25.3926 78.4967 25.3926Z"/>
  </g>
  <g id="Medium-L" transform="matrix(1 0 0 1 1668.73 1556)">
   <path d="M77.8236 24.538Q78.9025 24.538 80.3732 23.873Q81.8439 23.2081 83.0477 22.3861Q100.502 11.1117 113.455-1.25387Q126.408-13.6195 133.539-26.6745Q140.67-39.7295 140.67-53.0283Q140.67-64.3341 135.952-72.9978Q131.235-81.6615 123.187-86.5565Q115.138-91.4516 105.193-91.4516Q96.049-91.4516 89.0093-86.7592Q81.9695-82.0668 77.8236-74.307Q73.7357-82.0196 66.6908-86.7356Q59.6458-91.4516 50.4541-91.4516Q40.5093-91.4516 32.4848-86.5565Q24.4603-81.6615 19.7188-72.9978Q14.9774-64.3341 14.9774-53.0283Q14.9774-39.7295 22.1086-26.6745Q29.2398-13.6195 42.1925-1.25387Q55.1453 11.1117 72.5998 22.3861Q73.8614 23.2081 75.2971 23.873Q76.7329 24.538 77.8236 24.538Z"/>
  </g>
  <g id="Regular-L" transform="matrix(1 0 0 1 1372.9 1556)">
   <path d="M76.9456 23.4233Q77.8252 23.4233 79.01 22.9447Q80.1947 22.4661 81.0469 21.8803Q98.5606 10.6266 111.532-1.66874Q124.503-13.964 131.637-26.9278Q138.771-39.8916 138.771-53.1229Q138.771-64.0198 134.218-72.4398Q129.666-80.8599 121.832-85.6396Q113.999-90.4193 104.196-90.4193Q95.2288-90.4193 88.1605-85.7714Q81.0922-81.1235 76.9456-73.353Q72.852-81.071 65.7837-85.7451Q58.7154-90.4193 49.6961-90.4193Q39.8927-90.4193 32.0858-85.6396Q24.2789-80.8599 19.7-72.4398Q15.1211-64.0198 15.1211-53.1229Q15.1211-39.8916 22.2548-26.9278Q29.3884-13.964 42.3597-1.66874Q55.3311 10.6266 72.8447 21.8803Q73.7494 22.4661 74.894 22.9447Q76.0386 23.4233 76.9456 23.4233Z"/>
  </g>
  <g id="Light-L" transform="matrix(1 0 0 1 1077.75 1556)">
   <path d="M75.3805 21.9156Q76.1456 21.9156 77.149 21.5229Q78.1525 21.1302 78.8713 20.6397Q95.9841 9.50042 108.889-2.59447Q121.793-14.6894 128.994-27.4146Q136.194-40.1398 136.194-53.1229Q136.194-63.7145 131.747-71.896Q127.299-80.0775 119.638-84.7426Q111.976-89.4076 102.344-89.4076Q93.6829-89.4076 86.5096-84.8266Q79.3363-80.2456 75.3805-72.5513Q71.4587-80.2123 64.2854-84.81Q57.1121-89.4076 48.4173-89.4076Q38.7858-89.4076 31.1411-84.7426Q23.4965-80.0775 19.0321-71.896Q14.5677-63.7145 14.5677-53.1229Q14.5677-40.1398 21.7682-27.4146Q28.9686-14.6894 41.8731-2.59447Q54.7776 9.50042 71.8905 20.6397Q72.6425 21.1302 73.6058 21.5229Q74.569 21.9156 75.3805 21.9156Z"/>
  </g>
  <g id="Thin-L" transform="matrix(1 0 0 1 783.111 1556)">
   <path d="M73.3105 19.9215Q73.9242 19.9215 74.6878 19.6425Q75.4514 19.3635 75.9938 18.9989Q92.5765 8.01101 105.393-3.81882Q118.209-15.6487 125.498-28.0584Q132.786-40.468 132.786-53.1229Q132.786-63.3108 128.478-71.1767Q124.169-79.0427 116.735-83.5562Q109.3-88.0696 99.8961-88.0696Q91.6384-88.0696 84.3262-83.577Q77.014-79.0844 73.3105-71.4911Q69.616-79.0765 62.3038-83.5731Q54.9916-88.0696 46.726-88.0696Q37.3218-88.0696 29.8918-83.5562Q22.4617-79.0427 18.1487-71.1767Q13.8357-63.3108 13.8357-53.1229Q13.8357-40.468 21.1246-28.0584Q28.4135-15.6487 41.2296-3.81882Q54.0457 8.01101 70.6284 18.9989Q71.1786 19.3635 71.902 19.6425Q72.6254 19.9215 73.3105 19.9215Z"/>
  </g>
  <g id="Ultralight-L" transform="matrix(1 0 0 1 487.46 1556)">
   <path d="M72.2502 18.9002Q72.7864 18.9002 73.4272 18.6793Q74.068 18.4585 74.52 18.1585Q90.8311 7.24814 103.602-4.44593Q116.373-16.14 123.707-28.3881Q131.041-40.6362 131.041-53.1229Q131.041-63.104 126.804-70.8083Q122.566-78.5127 115.248-82.9485Q107.93-87.3843 98.6421-87.3843Q90.5911-87.3843 83.2078-82.937Q75.8245-78.4897 72.2502-70.948Q68.6722-78.4948 61.2889-82.9396Q53.9056-87.3843 45.8598-87.3843Q36.5719-87.3843 29.2518-82.9485Q21.9317-78.5127 17.6962-70.8083Q13.4608-63.104 13.4608-53.1229Q13.4608-40.6362 20.795-28.3881Q28.1292-16.14 40.9-4.44593Q53.6707 7.24814 69.9819 18.1585Q70.4287 18.4585 71.0293 18.6793Q71.6299 18.9002 72.2502 18.9002Z"/>
  </g>
  <g id="Black-M" transform="matrix(1 0 0 1 2869.55 1126)">
   <path d="M63.8485 15.7518Q65.5737 15.7518 67.9825 14.3983Q70.3914 13.0447 72.9162 11.3406Q86.0271 2.54877 95.9528-7.29053Q105.878-17.1298 111.415-27.5875Q116.951-38.0452 116.951-48.5784Q116.951-59.1379 112.562-66.9033Q108.174-74.6687 100.996-78.9589Q93.8184-83.2491 85.5139-83.2491Q77.7059-83.2491 72.3492-79.4294Q66.9926-75.6097 63.8485-69.674Q60.767-75.6042 55.3818-79.4266Q49.9966-83.2491 42.183-83.2491Q33.8785-83.2491 26.7036-78.9589Q19.5286-74.6687 15.1372-66.9033Q10.7458-59.1379 10.7458-48.5784Q10.7458-38.0452 16.2822-27.5875Q21.8185-17.1298 31.7441-7.29053Q41.6698 2.54877 54.7808 11.3406Q57.3682 13.0447 59.7744 14.3983Q62.1806 15.7518 63.8485 15.7518Z"/>
  </g>
  <g id="Heavy-M" transform="matrix(1 0 0 1 2573.63 1126)">
   <path d="M63.0594 14.647Q64.5536 14.647 66.635 13.5138Q68.7164 12.3807 70.8191 10.9588Q84.092 2.16883 94.0558-7.62341Q104.02-17.4157 109.545-27.8077Q115.07-38.1998 115.07-48.6997Q115.07-58.8006 110.87-66.3049Q106.671-73.8093 99.7319-77.9763Q92.7928-82.1434 84.6326-82.1434Q76.9867-82.1434 71.616-78.3663Q66.2453-74.5892 63.0594-68.6233Q59.9335-74.5729 54.541-78.3581Q49.1485-82.1434 41.4862-82.1434Q33.326-82.1434 26.3951-77.9763Q19.4642-73.8093 15.2566-66.3049Q11.049-58.8006 11.049-48.6997Q11.049-38.1998 16.574-27.8077Q22.0991-17.4157 32.063-7.62341Q42.0268 2.16883 55.2997 10.9588Q57.4624 12.3807 59.5345 13.5138Q61.6065 14.647 63.0594 14.647Z"/>
  </g>
  <g id="Bold-M" transform="matrix(1 0 0 1 2277.8 1126)">
   <path d="M62.1767 13.4112Q63.4126 13.4112 65.1276 12.5245Q66.8427 11.6378 68.4732 10.5317Q81.9272 1.74381 91.9338-7.99579Q101.94-17.7354 107.453-28.054Q112.965-38.3726 112.965-48.8354Q112.965-58.4232 108.978-65.6355Q104.99-72.8479 98.3177-76.8772Q91.6455-80.9065 83.6467-80.9065Q76.1823-80.9065 70.7958-77.1771Q65.4094-73.4477 62.1767-67.4481Q59.0012-73.4192 53.6005-77.1628Q48.1997-80.9065 40.7067-80.9065Q32.7079-80.9065 26.05-76.8772Q19.3922-72.8479 15.3901-65.6355Q11.3881-58.4232 11.3881-48.8354Q11.3881-38.3726 16.9006-28.054Q22.413-17.7354 32.4196-7.99579Q42.4263 1.74381 55.8802 10.5317Q57.5679 11.6378 59.266 12.5245Q60.9642 13.4112 62.1767 13.4112Z"/>
  </g>
  <g id="Semibold-M" transform="matrix(1 0 0 1 1981.7 1126)">
   <path d="M61.5681 12.5591Q62.626 12.5591 64.0885 11.8424Q65.551 11.1257 66.856 10.2373Q80.4348 1.45081 90.4709-8.2525Q100.507-17.9558 106.011-28.2238Q111.514-38.4918 111.514-48.9289Q111.514-58.163 107.673-65.1741Q103.831-72.1851 97.3428-76.1194Q90.8546-80.0538 82.9671-80.0538Q75.6277-80.0538 70.2304-76.3573Q64.8331-72.6608 61.5681-66.6378Q58.3585-72.6238 52.9521-76.3388Q47.5457-80.0538 40.1693-80.0538Q32.2818-80.0538 25.8122-76.1194Q19.3425-72.1851 15.4822-65.1741Q11.6219-58.163 11.6219-48.9289Q11.6219-38.4918 17.1257-28.2238Q22.6295-17.9558 32.6655-8.2525Q42.7016 1.45081 56.2804 10.2373Q57.6406 11.1257 59.081 11.8424Q60.5214 12.5591 61.5681 12.5591Z"/>
  </g>
  <g id="Medium-M" transform="matrix(1 0 0 1 1685.45 1126)">
   <path d="M61.1067 11.9131Q62.0295 11.9131 63.3005 11.3253Q64.5715 10.7374 65.6297 10.014Q79.3032 1.22864 89.3616-8.44715Q99.42-18.1229 104.917-28.3525Q110.414-38.5821 110.414-48.9998Q110.414-57.9658 106.683-64.8242Q102.952-71.6826 96.6035-75.5449Q90.2549-79.4072 82.4517-79.4072Q75.2072-79.4072 69.8016-75.7357Q64.3961-72.0641 61.1067-66.0235Q57.8711-72.0208 52.4604-75.714Q47.0498-79.4072 39.7618-79.4072Q31.9587-79.4072 25.6318-75.5449Q19.3049-71.6826 15.552-64.8242Q11.7991-57.9658 11.7991-48.9998Q11.7991-38.5821 17.2964-28.3525Q22.7936-18.1229 32.852-8.44715Q42.9104 1.22864 56.5839 10.014Q57.6957 10.7374 58.9407 11.3253Q60.1857 11.9131 61.1067 11.9131Z"/>
  </g>
  <g id="Regular-M" transform="matrix(1 0 0 1 1389.34 1126)">
   <path d="M60.5049 11.0705Q61.2515 11.0705 62.2728 10.6507Q63.294 10.2309 64.0302 9.72283Q77.8272 0.938853 87.9147-8.70104Q98.0023-18.3409 103.491-28.5205Q108.98-38.7 108.98-49.0923Q108.98-57.7085 105.393-64.3678Q101.806-71.0271 95.6393-74.7955Q89.4726-78.5639 81.7795-78.5639Q74.6587-78.5639 69.2424-74.9248Q63.8261-71.2858 60.5049-65.2222Q57.2354-71.2342 51.8192-74.899Q46.4029-78.5639 39.2304-78.5639Q31.5373-78.5639 25.3965-74.7955Q19.2557-71.0271 15.6431-64.3678Q12.0304-57.7085 12.0304-49.0923Q12.0304-38.7 17.519-28.5205Q23.0076-18.3409 33.0952-8.70104Q43.1827 0.938853 56.9797 9.72283Q57.7676 10.2309 58.7576 10.6507Q59.7477 11.0705 60.5049 11.0705Z"/>
  </g>
  <g id="Light-M" transform="matrix(1 0 0 1 1094.03 1126)">
   <path d="M59.1016 9.71873Q59.7457 9.71873 60.6044 9.376Q61.463 9.03327 62.0796 8.61056Q75.5173-0.0707924 85.5449-9.531Q95.5725-18.9912 101.121-28.9569Q106.67-38.9225 106.67-49.0923Q106.67-57.4348 103.177-63.8802Q99.6844-70.3257 93.6716-73.9913Q87.6589-77.6568 80.1199-77.6568Q73.2727-77.6568 67.7623-74.0778Q62.2519-70.4987 59.1016-64.5034Q55.9863-70.4643 50.4759-74.0606Q44.9655-77.6568 38.0839-77.6568Q30.5449-77.6568 24.5496-73.9913Q18.5543-70.3257 15.0442-63.8802Q11.5342-57.4348 11.5342-49.0923Q11.5342-38.9225 17.0827-28.9569Q22.6313-18.9912 32.6589-9.531Q42.6865-0.0707924 56.1241 8.61056Q56.7752 9.03327 57.6027 9.376Q58.4302 9.71873 59.1016 9.71873Z"/>
  </g>
  <g id="Thin-M" transform="matrix(1 0 0 1 799.176 1126)">
   <path d="M57.2458 7.93093Q57.7541 7.93093 58.3977 7.6901Q59.0414 7.44926 59.4998 7.13948Q72.4622-1.40613 82.4105-10.6287Q92.3588-19.8513 97.9867-29.534Q103.615-39.2168 103.615-49.0923Q103.615-57.0728 100.246-63.2354Q96.8783-69.3979 91.0692-72.9276Q85.2601-76.4572 77.9249-76.4572Q71.4397-76.4572 65.8047-72.9574Q60.1698-69.4576 57.2458-63.5529Q54.3342-69.446 48.6993-72.9516Q43.0644-76.4572 36.5675-76.4572Q29.2324-76.4572 23.4295-72.9276Q17.6265-69.3979 14.2522-63.2354Q10.8779-57.0728 10.8779-49.0923Q10.8779-39.2168 16.5057-29.534Q22.1336-19.8513 32.0819-10.6287Q42.0302-1.40613 54.9926 7.13948Q55.4626 7.44926 56.0751 7.6901Q56.6876 7.93093 57.2458 7.93093Z"/>
  </g>
  <g id="Ultralight-M" transform="matrix(1 0 0 1 503.415 1126)">
   <path d="M56.2952 7.01522Q56.734 7.01522 57.2675 6.82658Q57.801 6.63795 58.1785 6.386Q70.8974-2.09008 80.8051-11.1909Q90.7128-20.2918 96.3813-29.8297Q102.05-39.3675 102.05-49.0923Q102.05-56.8874 98.7454-62.9051Q95.4411-68.9227 89.7362-72.3828Q84.0314-75.8428 76.8006-75.8428Q70.5008-75.8428 64.8021-72.3836Q59.1033-68.9244 56.2952-63.066Q53.4881-68.9245 47.7894-72.3837Q42.0906-75.8428 35.7909-75.8428Q28.5601-75.8428 22.8557-72.3828Q17.1514-68.9227 13.8466-62.9051Q10.5418-56.8874 10.5418-49.0923Q10.5418-39.3675 16.2102-29.8297Q21.8787-20.2918 31.7864-11.1909Q41.6941-2.09008 54.413 6.386Q54.7904 6.63795 55.2927 6.82658Q55.7951 7.01522 56.2952 7.01522Z"/>
  </g>
  <g id="Black-S" transform="matrix(1 0 0 1 2883.2 696)">
   <path d="M50.1953 4.98047Q51.6113 4.98047 53.5889 3.85742Q55.5664 2.73438 57.666 1.31836Q67.8711-5.56641 75.6348-13.2812Q83.3984-20.9961 87.7441-29.1992Q92.0898-37.4023 92.0898-45.6543Q92.0898-54.0527 88.5986-60.2051Q85.1074-66.3574 79.4189-69.751Q73.7305-73.1445 67.1875-73.1445Q61.0352-73.1445 56.8359-70.1416Q52.6367-67.1387 50.1953-62.5Q47.8027-67.1387 43.5791-70.1416Q39.3555-73.1445 33.2031-73.1445Q26.6602-73.1445 20.9717-69.751Q15.2832-66.3574 11.792-60.2051Q8.30078-54.0527 8.30078-45.6543Q8.30078-37.4023 12.6465-29.1992Q16.9922-20.9961 24.7559-13.2812Q32.5195-5.56641 42.7246 1.31836Q44.873 2.73438 46.8506 3.85742Q48.8281 4.98047 50.1953 4.98047Z"/>
  </g>
  <g id="Heavy-S" transform="matrix(1 0 0 1 2586.99 696)">
   <path d="M49.6998 4.20833Q50.9314 4.20833 52.6496 3.26391Q54.3679 2.31949 56.1217 1.13397Q66.5112-5.76232 74.3152-13.4599Q82.1192-21.1574 86.4476-29.3318Q90.7761-37.5061 90.7761-45.758Q90.7761-53.7992 87.4347-59.7556Q84.0933-65.7121 78.5892-69.0134Q73.0851-72.3148 66.6459-72.3148Q60.5972-72.3148 56.398-69.3407Q52.1988-66.3665 49.6998-61.6933Q47.2496-66.355 43.0317-69.3349Q38.8138-72.3148 32.7537-72.3148Q26.3144-72.3148 20.8161-69.0134Q15.3178-65.7121 11.9706-59.7556Q8.62347-53.7992 8.62347-45.758Q8.62347-37.5061 12.9519-29.3318Q17.2803-21.1574 25.0843-13.4599Q32.8883-5.76232 43.2778 1.13397Q45.0805 2.31949 46.793 3.26391Q48.5054 4.20833 49.6998 4.20833Z"/>
  </g>
  <g id="Bold-S" transform="matrix(1 0 0 1 2290.83 696)">
   <path d="M49.1455 3.34473Q50.1709 3.34473 51.5991 2.6001Q53.0273 1.85547 54.3945 0.927734Q64.9902-5.98145 72.8394-13.6597Q80.6885-21.3379 84.9976-29.48Q89.3066-37.6221 89.3066-45.874Q89.3066-53.5156 86.1328-59.2529Q82.959-64.9902 77.6611-68.1885Q72.3633-71.3867 66.04-71.3867Q60.1074-71.3867 55.9082-68.4448Q51.709-65.5029 49.1455-60.791Q46.6309-65.4785 42.4194-68.4326Q38.208-71.3867 32.251-71.3867Q25.9277-71.3867 20.6421-68.1885Q15.3564-64.9902 12.1704-59.2529Q8.98438-53.5156 8.98438-45.874Q8.98438-37.6221 13.2935-29.48Q17.6025-21.3379 25.4517-13.6597Q33.3008-5.98145 43.8965 0.927734Q45.3125 1.85547 46.7285 2.6001Q48.1445 3.34473 49.1455 3.34473Z"/>
  </g>
  <g id="Semibold-S" transform="matrix(1 0 0 1 1994.5 696)">
   <path d="M48.7634 2.74932Q49.6466 2.74932 50.8749 2.14243Q52.1031 1.53555 53.2037 0.785547Q63.9416-6.13252 71.8218-13.7974Q79.7021-21.4623 83.9978-29.5822Q88.2936-37.7021 88.2936-45.954Q88.2936-53.3201 85.2353-58.9063Q82.177-64.4926 77.0213-67.6197Q71.8656-70.7469 65.6224-70.7469Q59.7697-70.7469 55.5705-67.8272Q51.3713-64.9075 48.7634-60.1689Q46.2043-64.8742 41.9973-67.8105Q37.7903-70.7469 31.9044-70.7469Q25.6611-70.7469 20.5221-67.6197Q15.3831-64.4926 12.3082-58.9063Q9.2332-53.3201 9.2332-45.954Q9.2332-37.7021 13.529-29.5822Q17.8247-21.4623 25.7049-13.7974Q33.5852-6.13252 44.323 0.785547Q45.4725 1.53555 46.6841 2.14243Q47.8957 2.74932 48.7634 2.74932Z"/>
  </g>
  <g id="Medium-S" transform="matrix(1 0 0 1 1698.08 696)">
   <path d="M48.4736 2.29785Q49.249 2.29785 50.3257 1.79541Q51.4023 1.29297 52.3008 0.677734Q63.1465-6.24707 71.0503-13.9019Q78.9541-21.5566 83.2397-29.6597Q87.5254-37.7627 87.5254-46.0146Q87.5254-53.1719 84.5547-58.6436Q81.584-64.1152 76.5361-67.1885Q71.4883-70.2617 65.3057-70.2617Q59.5137-70.2617 55.3145-67.3589Q51.1152-64.4561 48.4736-59.6973Q45.8809-64.416 41.6772-67.3389Q37.4736-70.2617 31.6416-70.2617Q25.459-70.2617 20.4312-67.1885Q15.4033-64.1152 12.4126-58.6436Q9.42188-53.1719 9.42188-46.0146Q9.42188-37.7627 13.7075-29.6597Q17.9932-21.5566 25.897-13.9019Q33.8008-6.24707 44.6465 0.677734Q45.5938 1.29297 46.6504 1.79541Q47.707 2.29785 48.4736 2.29785Z"/>
  </g>
  <g id="Regular-S" transform="matrix(1 0 0 1 1401.75 696)">
   <path d="M48.0957 1.70898Q48.7305 1.70898 49.6094 1.34277Q50.4883 0.976562 51.123 0.537109Q62.1094-6.39648 70.0439-14.0381Q77.9785-21.6797 82.251-29.7607Q86.5234-37.8418 86.5234-46.0938Q86.5234-52.9785 83.667-58.3008Q80.8105-63.623 75.9033-66.626Q70.9961-69.6289 64.8926-69.6289Q59.1797-69.6289 54.9805-66.748Q50.7812-63.8672 48.0957-59.082Q45.459-63.8184 41.2598-66.7236Q37.0605-69.6289 31.2988-69.6289Q25.1953-69.6289 20.3125-66.626Q15.4297-63.623 12.5488-58.3008Q9.66797-52.9785 9.66797-46.0938Q9.66797-37.8418 13.9404-29.7607Q18.2129-21.6797 26.1475-14.0381Q34.082-6.39648 45.0684 0.537109Q45.752 0.976562 46.6064 1.34277Q47.4609 1.70898 48.0957 1.70898Z"/>
  </g>
  <g id="Light-S" transform="matrix(1 0 0 1 1106.28 696)">
   <path d="M46.8544 0.513204Q47.3984 0.513204 48.1335 0.215149Q48.8686-0.0829061 49.3975-0.446828Q60.066-7.28963 67.9475-14.7723Q75.8291-22.2549 80.1545-30.1468Q84.48-38.0386 84.48-46.0938Q84.48-52.7364 81.7069-57.8695Q78.9337-63.0025 74.1627-65.9145Q69.3916-68.8265 63.4244-68.8265Q57.9536-68.8265 53.6711-65.9987Q49.3886-63.1709 46.8544-58.4462Q44.354-63.1373 40.0715-65.9819Q35.789-68.8265 30.2846-68.8265Q24.3174-68.8265 19.5633-65.9145Q14.8092-63.0025 12.0191-57.8695Q9.22902-52.7364 9.22902-46.0938Q9.22902-38.0386 13.5545-30.1468Q17.88-22.2549 25.7615-14.7723Q33.6431-7.28963 44.3115-0.446828Q44.8741-0.0829061 45.5847 0.215149Q46.2954 0.513204 46.8544 0.513204Z"/>
  </g>
  <g id="Thin-S" transform="matrix(1 0 0 1 811.209 696)">
   <path d="M45.2127-1.06831Q45.6366-1.06831 46.1815-1.27623Q46.7263-1.48414 47.1154-1.74817Q57.3634-8.47089 65.1748-15.7433Q72.9862-23.0158 77.3818-30.6574Q81.7775-38.299 81.7775-46.0938Q81.7775-52.4162 79.1145-57.299Q76.4515-62.1818 71.8605-64.9736Q67.2696-67.7654 61.4827-67.7654Q56.3321-67.7654 51.9394-65.0077Q47.5468-62.25 45.2127-57.6054Q42.8926-62.2366 38.4999-65.001Q34.1072-67.7654 28.9433-67.7654Q23.1563-67.7654 18.5724-64.9736Q13.9885-62.1818 11.3185-57.299Q8.64848-52.4162 8.64848-46.0938Q8.64848-38.299 13.0441-30.6574Q17.4397-23.0158 25.2511-15.7433Q33.0625-8.47089 43.3105-1.74817Q43.713-1.48414 44.2335-1.27623Q44.7539-1.06831 45.2127-1.06831Z"/>
  </g>
  <g id="Ultralight-S" transform="matrix(1 0 0 1 515.339 696)">
   <path d="M44.3718-1.87836Q44.7342-1.87836 45.1817-2.0401Q45.6291-2.20184 45.9465-2.4147Q55.9792-9.07593 63.7547-16.2407Q71.5302-23.4055 75.9617-30.9189Q80.3932-38.4323 80.3932-46.0938Q80.3932-52.2522 77.7866-57.0068Q75.1801-61.7615 70.6814-64.4917Q66.1827-67.2218 60.4881-67.2218Q55.5016-67.2218 51.0525-64.5Q46.6034-61.7783 44.3718-57.1747Q42.144-61.7752 37.6949-64.4985Q33.2458-67.2218 28.2562-67.2218Q22.5616-67.2218 18.0649-64.4917Q13.5681-61.7615 10.9596-57.0068Q8.35114-52.2522 8.35114-46.0938Q8.35114-38.4323 12.7827-30.9189Q17.2142-23.4055 24.9897-16.2407Q32.7652-9.07593 42.7979-2.4147Q43.1183-2.20184 43.5413-2.0401Q43.9644-1.87836 44.3718-1.87836Z"/>
  </g>
 </g>
</svg>
